<svg width="207" height="207" viewBox="0 0 207 207" fill="none" xmlns="http://www.w3.org/2000/svg">
<circle cx="103.5" cy="103.5" r="103.5" fill="#FDFDFD"/>
<path d="M149.678 79.8178C149.714 80.8339 149.734 81.871 149.734 82.9128C149.734 114.382 125.78 150.672 81.9543 150.672C68.4993 150.672 55.977 146.749 45.4354 139.968C47.3059 140.194 49.1974 140.313 51.1153 140.313C62.2879 140.313 72.5484 136.509 80.7088 130.114C70.2868 129.912 61.4956 123.033 58.4627 113.565C59.9066 113.852 61.3916 113.992 62.939 113.992C65.0966 113.992 67.2121 113.711 69.208 113.158C58.3169 110.98 50.094 101.355 50.094 89.8128C50.094 89.7082 50.094 89.6095 50.1149 89.5051C53.309 91.2978 56.9985 92.3558 60.9071 92.4753C54.5128 88.2231 50.2971 80.9175 50.2971 72.6525C50.2971 68.2958 51.4798 64.2051 53.5175 60.6826C65.2581 75.0965 82.8301 84.5808 102.611 85.5761C102.204 83.8251 102.002 82.0168 102.002 80.1411C102.002 66.9937 112.668 56.3258 125.821 56.3258C132.679 56.3258 138.864 59.2188 143.199 63.8349C148.635 62.7774 153.747 60.8029 158.349 58.0558C156.556 63.6316 152.788 68.2958 147.863 71.2462C152.69 70.678 157.291 69.396 161.542 67.5044C158.37 72.2675 154.315 76.4568 149.678 79.8178ZM103.486 0C46.4301 0 0 46.436 0 103.492C0 160.569 46.4301 206.999 103.486 206.999C160.564 206.999 207 160.569 207 103.492C207 46.436 160.564 0 103.486 0Z" fill="url(#paint0_linear)"/>
<defs>
<linearGradient id="paint0_linear" x1="45" y1="192" x2="164.5" y2="19.5" gradientUnits="userSpaceOnUse">
<stop stop-color="#D16BA5"/>
<stop offset="0.091" stop-color="#CF6FB1"/>
<stop offset="0.182" stop-color="#CB73BE"/>
<stop offset="0.273" stop-color="#C678CB"/>
<stop offset="0.364" stop-color="#BE7ED7"/>
<stop offset="0.455" stop-color="#B388E2"/>
<stop offset="0.545" stop-color="#A692EC"/>
<stop offset="0.636" stop-color="#999BF4"/>
<stop offset="0.727" stop-color="#8BA9F8"/>
<stop offset="0.818" stop-color="#83B5F9"/>
<stop offset="0.909" stop-color="#82C0F6"/>
<stop offset="1" stop-color="#89C9F2"/>
</linearGradient>
</defs>
</svg>
