<svg width="472" height="472" viewBox="0 0 472 472" fill="none" xmlns="http://www.w3.org/2000/svg">
<path d="M411.886 35.0851C418.867 28.6083 429.72 28.8117 436.454 35.5456C443.188 42.2794 443.392 53.1327 436.915 60.1142L217.116 297.04L174.96 254.884L411.886 35.0851Z" fill="#3E6281" stroke="#3E6281" stroke-width="10"/>
<path d="M181.896 332.53C170.18 344.246 151.185 344.246 139.469 332.53C127.754 320.815 127.754 301.82 139.469 290.104L159.268 270.305L201.695 312.731L181.896 332.53Z" fill="#3E6281" stroke="#3E6281" stroke-width="10"/>
<path d="M131.039 400.378C150.693 365.584 121.814 329.488 89.9832 333.082C75.2467 334.746 58.8134 345.865 53.5709 362.271C48.3285 378.677 50.9579 386.554 44.7295 400.006C40.2293 409.726 33.908 416.081 25.7062 421C51.3166 446.61 111.385 435.173 131.039 400.378Z" fill="#3E6281" stroke="#3E6281" stroke-width="10"/>
</svg>
