<svg width="457" height="457" viewBox="0 0 457 457" fill="none" xmlns="http://www.w3.org/2000/svg">
<path d="M422.137 59.8924L202.338 296.818L160.182 254.662L397.108 34.8633C404.089 28.3865 414.942 28.5899 421.676 35.3238C428.41 42.0576 428.613 52.9109 422.137 59.8924Z" stroke="black" stroke-width="10"/>
<path d="M140.248 274.326L156.511 258.062C158.464 256.11 161.63 256.11 163.582 258.062L198.937 293.418C200.89 295.37 200.89 298.536 198.937 300.489L182.674 316.752C170.958 328.468 151.963 328.468 140.248 316.752C128.532 305.037 128.532 286.042 140.248 274.326Z" stroke="black" stroke-width="10"/>
<path d="M131.817 384.6C151.472 349.806 122.592 313.71 90.7614 317.304C76.0249 318.968 59.5915 330.087 54.3491 346.493C49.1066 362.899 51.7361 370.776 45.5076 384.228C41.0075 393.947 34.6861 400.303 26.4843 405.221C52.0948 430.832 112.163 419.395 131.817 384.6Z" stroke="black" stroke-width="10"/>
</svg>
