<svg width="200" height="201" viewBox="0 0 200 201" fill="none" xmlns="http://www.w3.org/2000/svg">
<rect x="90" width="20" height="153" rx="10" fill="#222222"/>
<rect x="149.64" y="79" width="20" height="90" rx="10" transform="rotate(45 149.64 79)" fill="#222222"/>
<rect x="36" y="93.1421" width="20" height="90" rx="10" transform="rotate(-45 36 93.1421)" fill="#222222"/>
<path d="M15 201C6.71573 201 0 194.284 0 186V186C0 183.239 2.23858 181 5 181H195C197.761 181 200 183.239 200 186V186C200 194.284 193.284 201 185 201H15Z" fill="#222222"/>
<path d="M180 121C180 115.477 184.477 111 190 111V111C195.523 111 200 115.477 200 121V186C200 194.284 193.284 201 185 201V201C182.239 201 180 198.761 180 196V121Z" fill="#222222"/>
<path d="M0 121C0 115.477 4.47715 111 10 111V111C15.5228 111 20 115.477 20 121V196C20 198.761 17.7614 201 15 201V201C6.71573 201 0 194.284 0 186L0 121Z" fill="#222222"/>
<path d="M32.5 181.5C23 181.5 19.5 178 19.5 168H14V186.5H32.5V181.5Z" fill="#222222" stroke="#222222"/>
<path d="M168 181.5C177.5 181.5 180.5 178 180.5 168H186.5V186.5H168V181.5Z" fill="#222222" stroke="#222222"/>
</svg>
