<svg width="460" height="460" viewBox="0 0 460 460" fill="none" xmlns="http://www.w3.org/2000/svg">
<path d="M423.304 58.1921L205.27 293.215L166.785 254.729L401.808 36.696C407.804 31.1335 417.125 31.3082 422.908 37.0915C428.692 42.8748 428.866 52.1961 423.304 58.1921Z" fill="white" stroke="#222222" stroke-width="15"/>
<mask id="path-2-inside-1" fill="white">
<path d="M189.21 320.288C175.541 333.956 153.38 333.956 139.712 320.288V320.288C126.044 306.619 126.044 284.459 139.712 270.79L155.976 254.527C159.881 250.622 166.212 250.622 170.118 254.527L205.473 289.882C209.378 293.787 209.378 300.119 205.473 304.024L189.21 320.288Z"/>
</mask>
<path d="M189.21 320.288C175.541 333.956 153.38 333.956 139.712 320.288V320.288C126.044 306.619 126.044 284.459 139.712 270.79L155.976 254.527C159.881 250.622 166.212 250.622 170.118 254.527L205.473 289.882C209.378 293.787 209.378 300.119 205.473 304.024L189.21 320.288Z" fill="white" stroke="#222222" stroke-width="30" mask="url(#path-2-inside-1)"/>
<path d="M134.817 384.6C154.472 349.806 125.592 313.71 93.7614 317.304C79.0249 318.968 62.5915 330.087 57.3491 346.493C52.1066 362.899 54.7361 370.776 48.5076 384.228C44.0075 393.947 37.6861 400.303 29.4843 405.221C55.0948 430.832 115.163 419.395 134.817 384.6Z" fill="white" stroke="#222222" stroke-width="15"/>
</svg>
