<svg width="981" height="878" viewBox="0 0 981 878" fill="none" xmlns="http://www.w3.org/2000/svg">
<path d="M452.7 861.3C337.2 790.8 221.7 694.5 142.2 601.8C71.4 519.6 26.1 434.1 7.20002 346.5C0.600016 316.5 -1.49998 257.1 2.70002 229.5C19.8 123.6 98.7 36.9 203.7 8.4C234.6 -2.38419e-06 298.5 -0.600003 327 7.2C351.3 13.8 390.3 31.8 413.1 47.1C434.7 61.2 464.1 88.5 478.8 108C489.9 122.7 489.9 122.7 497.1 113.1C511.8 92.7 545.7 61.8 571.2 44.7C659.7 -13.8 765.9 -14.4 855.3 43.5C944.4 101.1 991.5 203.7 978 310.8C960.9 448.8 878.1 581.4 726 714.9C645.6 785.4 510.3 879 489.3 879C484.8 879 468.6 870.9 452.7 861.3Z" fill="#FF564A"/>
</svg>
